<svg xmlns="http://www.w3.org/2000/svg" width="352" height="500" viewBox="0 0 352 500">
  <g id="Group_125" data-name="Group 125" transform="translate(-80 -948)">
    <rect id="wooden-bench-and-stools-in-a-cozy-room-3049121" width="352" height="500" rx="8" transform="translate(80 948)" fill="#eaeaea"/>
    <g id="interface" transform="translate(226 1129.2)">
      <g id="Group_26" data-name="Group 26" transform="translate(0 44.8)">
        <g id="Group_25" data-name="Group 25">
          <path id="Path_7" data-name="Path 7" d="M58.006,52.158a6.451,6.451,0,0,0-4.734-2H43.8v-.114a5.121,5.121,0,0,0-1.54-3.707,5.219,5.219,0,0,0-3.707-1.54H21.446a5.258,5.258,0,0,0-5.3,5.247v.114H6.73a6.451,6.451,0,0,0-4.734,2,6.781,6.781,0,0,0-2,4.734V85.3A6.451,6.451,0,0,0,2,90.03a6.781,6.781,0,0,0,4.734,2H53.272a6.451,6.451,0,0,0,4.734-2A6.781,6.781,0,0,0,60,85.3v-28.4A6.451,6.451,0,0,0,58.006,52.158ZM57.036,85.3h-.057A3.7,3.7,0,0,1,53.272,89H6.73A3.7,3.7,0,0,1,3.023,85.3v-28.4A3.7,3.7,0,0,1,6.73,53.184H17.738a1.534,1.534,0,0,0,1.54-1.54V49.99A2.147,2.147,0,0,1,21.5,47.766H38.556a2.147,2.147,0,0,1,2.224,2.224v1.654a1.534,1.534,0,0,0,1.54,1.54H53.329a3.7,3.7,0,0,1,3.707,3.707Z" transform="translate(0 -44.8)" fill="#fff"/>
          <path id="Path_8" data-name="Path 8" d="M126.031,130.8a14.021,14.021,0,1,0,9.924,4.107A14.056,14.056,0,0,0,126.031,130.8Zm7.757,21.845a11.016,11.016,0,0,1-15.514,0,10.9,10.9,0,0,1-3.194-7.757,11.146,11.146,0,0,1,3.194-7.757,10.9,10.9,0,0,1,7.757-3.194,11.146,11.146,0,0,1,7.757,3.194,10.9,10.9,0,0,1,3.194,7.757A10.673,10.673,0,0,1,133.788,152.645Z" transform="translate(-96.03 -118.537)" fill="#fff"/>
          <circle id="Ellipse_1" data-name="Ellipse 1" cx="2.795" cy="2.795" r="2.795" transform="translate(47.511 12.206)" fill="#fff"/>
        </g>
      </g>
    </g>
  </g>
</svg>
